<svg xmlns="http://www.w3.org/2000/svg">
  <defs>
    <pattern id="foilLines" patternUnits="userSpaceOnUse" width="200" height="200">
      
      <g stroke="black" stroke-width="1" fill="none">
        <path d="M0 0 Q50 10 100 0 T200 0" />
        <path d="M0 4 Q50 14 100 4 T200 4" />
        <path d="M0 8 Q50 18 100 8 T200 8" />
        <path d="M0 12 Q50 22 100 12 T200 12" />
        <path d="M0 16 Q50 26 100 16 T200 16" />
        <path d="M0 20 Q50 30 100 20 T200 20" />
        <path d="M0 24 Q50 34 100 24 T200 24" />
        <path d="M0 28 Q50 38 100 28 T200 28" />
        <path d="M0 32 Q50 42 100 32 T200 32" />
        <path d="M0 36 Q50 46 100 36 T200 36" />
        <path d="M0 40 Q50 50 100 40 T200 40" />
        <path d="M0 44 Q50 54 100 44 T200 44" />
        <path d="M0 48 Q50 58 100 48 T200 48" />
        <path d="M0 52 Q50 62 100 52 T200 52" />
        <path d="M0 56 Q50 66 100 56 T200 56" />
        <path d="M0 60 Q50 70 100 60 T200 60" />
        <path d="M0 64 Q50 74 100 64 T200 64" />
        <path d="M0 68 Q50 78 100 68 T200 68" />
        <path d="M0 72 Q50 82 100 72 T200 72" />
        <path d="M0 76 Q50 86 100 76 T200 76" />
        <path d="M0 80 Q50 90 100 80 T200 80" />
        <path d="M0 84 Q50 94 100 84 T200 84" />
        <path d="M0 88 Q50 98 100 88 T200 88" />
        <path d="M0 92 Q50 102 100 92 T200 92" />
        <path d="M0 96 Q50 106 100 96 T200 96" />
        <path d="M0 100 Q50 110 100 100 T200 100" />
        <path d="M0 104 Q50 114 100 104 T200 104" />
        <path d="M0 108 Q50 118 100 108 T200 108" />
        <path d="M0 112 Q50 122 100 112 T200 112" />
        <path d="M0 116 Q50 126 100 116 T200 116" />
        <path d="M0 120 Q50 130 100 120 T200 120" />
        <path d="M0 124 Q50 134 100 124 T200 124" />
        <path d="M0 128 Q50 138 100 128 T200 128" />
        <path d="M0 132 Q50 142 100 132 T200 132" />
        <path d="M0 136 Q50 146 100 136 T200 136" />
        <path d="M0 140 Q50 150 100 140 T200 140" />
        <path d="M0 144 Q50 154 100 144 T200 144" />
        <path d="M0 148 Q50 158 100 148 T200 148" />
        <path d="M0 152 Q50 162 100 152 T200 152" />
        <path d="M0 156 Q50 166 100 156 T200 156" />
        <path d="M0 160 Q50 170 100 160 T200 160" />
        <path d="M0 164 Q50 174 100 164 T200 164" />
        <path d="M0 168 Q50 178 100 168 T200 168" />
        <path d="M0 172 Q50 182 100 172 T200 172" />
        <path d="M0 176 Q50 186 100 176 T200 176" />
        <path d="M0 180 Q50 190 100 180 T200 180" />
        <path d="M0 184 Q50 194 100 184 T200 184" />
        <path d="M0 188 Q50 198 100 188 T200 188" />
        <path d="M0 192 Q50 202 100 192 T200 192" />
        <path d="M0 196 Q50 206 100 196 T200 196" />
        <path d="M0 200 Q50 210 100 200 T200 200" />
      </g>
    </pattern>
  </defs>

  <rect width="100%" height="100%" fill="url(#foilLines)" />
</svg>